<svg width="25" height="23" viewBox="0 0 25 23" fill="none" xmlns="http://www.w3.org/2000/svg">
<path d="M7.36462 10.2522L7.29171 11.1842L7.36462 12.1162H18.073L17.1875 13.9803H7.98962C9.16671 16.1798 11.6771 17.7083 14.5834 17.7083C16.9063 17.7083 18.9792 16.739 20.3125 15.2198V17.8202C18.6759 18.9617 16.6585 19.5787 14.5834 19.5724C10.5 19.5724 7.03129 17.2423 5.72921 13.9803H2.08337L3.12504 12.1162H5.26046L5.20837 11.1842L5.26046 10.2522H2.08337L3.12504 8.38816H5.72921C7.03129 5.1261 10.5 2.79605 14.5834 2.79605C17.1875 2.79605 19.5834 3.76535 21.2813 5.32182L20.3855 7.22314C19.7037 6.42552 18.8255 5.77933 17.8193 5.3348C16.813 4.89028 15.7056 4.65939 14.5834 4.66009C11.6771 4.66009 9.16671 6.1886 7.98962 8.38816H19.8334L18.948 10.2522H7.36462Z" fill="#9747FF"/>
</svg>
