<svg width="21" height="19" viewBox="0 0 21 19" fill="none" xmlns="http://www.w3.org/2000/svg">
<path d="M21 13.5702C21 14.9544 20.4469 16.282 19.4623 17.2608C18.4777 18.2396 17.1424 18.7895 15.75 18.7895H6.3V6.26316H8.4V16.7018H15.75C16.5854 16.7018 17.3866 16.3718 17.9774 15.7845C18.5681 15.1973 18.9 14.4007 18.9 13.5702V0H21V13.5702ZM14.7 5.2193V12.5263H12.6V5.2193C12.6 4.38875 12.2681 3.59222 11.6774 3.00494C11.0866 2.41765 10.2854 2.08772 9.45 2.08772H2.1V18.7895H0V0H9.45C10.8424 0 12.1777 0.549889 13.1623 1.5287C14.1469 2.50751 14.7 3.83505 14.7 5.2193Z" fill="#9747FF"/>
</svg>
