<svg width="25" height="23" viewBox="0 0 25 23" fill="none" xmlns="http://www.w3.org/2000/svg">
<path d="M6.25 15.0721C6.48125 17.4026 8.61406 19.0565 11.8609 19.2704V20.9704H13.4906V19.2704C17.0375 19.0202 19.2375 17.26 19.2375 14.6569C19.2375 12.4341 17.7578 11.1479 14.6187 10.4237L13.4906 10.1623V4.84697C15.2437 5.00075 16.4266 5.84516 16.725 7.10618H19.0219C18.7625 4.86934 16.6156 3.26441 13.4906 3.08686V1.39804H11.8609V3.12181C8.83125 3.44335 6.75156 5.1797 6.75156 7.53398C6.75156 9.56671 8.26094 11.0053 10.9094 11.612L11.8625 11.8385V17.4739C10.0672 17.2363 8.83125 16.3555 8.53281 15.0721H6.25V15.0721ZM11.5484 9.70931C9.91875 9.34163 9.04844 8.55594 9.04844 7.4501C9.04844 6.13036 10.1484 5.15594 11.8609 4.8945V9.78061L11.5484 9.71071V9.70931ZM14.0344 12.3264C16.0453 12.778 16.9281 13.5273 16.9281 14.7995C16.9281 16.3332 15.6375 17.3551 13.4906 17.5103V12.2048L14.0344 12.325V12.3264Z" fill="#9747FF"/>
</svg>
